# xmcd
#
# Track frame offsets:
#	150
#	16115
#	28110
#	42322
#	59637
#	72030
#	87680
#	106037
#	129365
#	147842
#	167932
#	186205
#	202780
#	221535
#
# Disc length: 3175 seconds
#
# Revision: 1
# Processed by: cddbd v1.5PL3 Copyright (c) Steve Scherf et al.
# Submitted via: audiograbber 1.82.02
#
DISCID=c30c650e
DTITLE=HIT DISK - HIT DISK 559C
DYEAR=2004
DGENRE=
TTITLE0=JOSH TURNER - What It Ain't
TTITLE1=Q
TTITLE2=QQ
TTITLE3=QQQ
TTITLE4=QQQQ
TTITLE5=QQQQQ
TTITLE6=QQQQQQ
TTITLE7=QQQQQQQ
TTITLE8=QQQQQQQQ
TTITLE9=QQQQQQQQQ
TTITLE10=QQQQQQQQQQ
TTITLE11=QQQQQQQQQQQ
TTITLE12=QQQQQQQQQQQ
TTITLE13=QQQQQQQQQQQQ
EXTD=
EXTT0=
EXTT1=
EXTT2=
EXTT3=
EXTT4=
EXTT5=
EXTT6=
EXTT7=
EXTT8=
EXTT9=
EXTT10=
EXTT11=
EXTT12=
EXTT13=
PLAYORDER=
